<?xml version="1.0" encoding="UTF-8"?><svg id="Layer_2" xmlns="http://www.w3.org/2000/svg" viewBox="0 0 30.63 24.41"><defs><style>.cls-1{fill:#fff;}</style></defs><g id="Layer_1-2"><path class="cls-1" d="m17.8,9.23c0-1.2-.85-1.87-2.34-1.87h-2.75v3.88h2.32c1.79,0,2.77-.72,2.77-2.01Zm10-.7c-.52-1.68-.59-3.75-.53-5.35.06-1.66-1.24-3.19-2.98-3.19H6.36c-1.75,0-3.04,1.53-2.98,3.19.05,1.6-.02,3.66-.53,5.35-.52,1.69-1.4,2.76-2.85,2.89v1.55c1.44.14,2.32,1.2,2.85,2.89.52,1.68.59,3.75.53,5.35-.06,1.66,1.24,3.19,2.98,3.19h17.92c1.75,0,3.04-1.53,2.98-3.19-.05-1.6.02-3.66.53-5.35.52-1.69,1.4-2.76,2.84-2.89v-1.55c-1.43-.14-2.32-1.2-2.83-2.89Zm-11.82,10.16h-5.34V5.71h5.31c2.36,0,3.91,1.28,3.91,3.24,0,1.38-1.04,2.61-2.37,2.82v.07c1.81.2,3.02,1.45,3.02,3.18,0,2.29-1.71,3.68-4.53,3.68Zm-.55-5.92h-2.73v4.27h2.85c1.86,0,2.85-.75,2.85-2.15,0-1.4-1.01-2.12-2.97-2.12Z"/></g></svg>