<?xml version="1.0" encoding="UTF-8"?><svg id="Layer_2" xmlns="http://www.w3.org/2000/svg" viewBox="0 0 31.82 27.84"><defs><style>.cls-1{fill:#FCF6E7;}</style></defs><g id="Layer_1-2"><path class="cls-1" d="m25.99,9.02c-.34-.11-.67-.22-1.01-.32.06-.23.11-.46.16-.69.76-3.7.26-6.68-1.44-7.66-1.63-.94-4.3.04-7,2.39-.27.23-.53.47-.78.71-.17-.16-.34-.32-.52-.48C12.58.47,9.75-.59,8.05.4c-1.63.94-2.11,3.75-1.43,7.25.07.35.14.69.23,1.04-.4.11-.79.24-1.16.37-3.32,1.15-5.7,2.96-5.7,4.84s2.54,3.88,5.98,5.06c.28.09.56.19.85.27-.09.37-.17.74-.25,1.12-.65,3.45-.14,6.18,1.49,7.12,1.68.97,4.5-.02,7.25-2.43.22-.19.44-.39.65-.6.27.27.56.52.85.77,2.66,2.29,5.29,3.21,6.91,2.27,1.68-.97,2.22-3.91,1.52-7.49-.06-.27-.12-.55-.19-.84.2-.06.39-.12.58-.18,3.59-1.19,6.18-3.11,6.18-5.08s-2.45-3.71-5.83-4.87h0Zm-8.41-5.28c2.31-2.01,4.47-2.8,5.45-2.24,1.05.6,1.45,3.04.8,6.24-.04.21-.09.42-.14.62-1.38-.31-2.78-.53-4.18-.66-.81-1.16-1.69-2.26-2.65-3.3.24-.23.48-.45.73-.66Zm-7.19,13.37c.32.54.64,1.08.98,1.61-.97-.11-1.93-.26-2.88-.47.27-.89.62-1.82,1.01-2.77.29.55.58,1.09.89,1.62h0Zm-1.88-7.48c.89-.2,1.85-.36,2.83-.48-.33.52-.65,1.04-.96,1.58-.3.53-.6,1.07-.88,1.62-.39-.93-.72-1.83-.99-2.71h0Zm1.7,4.28c.41-.86.86-1.7,1.33-2.52s.98-1.63,1.52-2.42c.93-.07,1.88-.11,2.85-.11s1.93.04,2.85.11c.53.78,1.03,1.58,1.51,2.4s.93,1.66,1.35,2.51c-.42.86-.86,1.7-1.34,2.54-.47.83-.98,1.63-1.5,2.42-.93.07-1.89.1-2.86.1s-1.92-.03-2.83-.09c-.54-.79-1.05-1.6-1.53-2.42s-.92-1.67-1.34-2.52h0Zm11.22,3.18c.32-.55.62-1.1.91-1.66.4.9.75,1.81,1.05,2.75-.96.22-1.94.39-2.92.5.34-.52.65-1.06.96-1.59h0Zm.89-4.75c-.29-.55-.59-1.09-.9-1.63-.3-.53-.62-1.05-.95-1.57,1,.12,1.96.29,2.85.5-.29.92-.62,1.81-1,2.7Zm-6.41-6.99c.65.71,1.27,1.45,1.84,2.22-1.23-.06-2.47-.06-3.7,0,.61-.8,1.24-1.55,1.86-2.22Zm-7.21-3.81c1.04-.61,3.36.26,5.8,2.42.16.14.31.29.47.44-.96,1.04-1.85,2.14-2.67,3.3-1.4.12-2.8.34-4.18.65-.08-.32-.15-.64-.22-.96-.58-3.01-.2-5.28.78-5.84h0Zm-1.52,16.38c-.26-.07-.52-.16-.77-.24-1.32-.42-2.83-1.08-3.92-1.94-.63-.44-1.05-1.11-1.17-1.86,0-1.14,1.96-2.59,4.8-3.58.35-.12.71-.24,1.08-.34.42,1.35.93,2.67,1.52,3.95-.6,1.3-1.11,2.64-1.54,4.01Zm7.25,6.09c-1.03.94-2.21,1.68-3.5,2.19-.69.33-1.49.36-2.19.08-.99-.57-1.4-2.77-.84-5.72.07-.35.14-.7.23-1.04,1.39.3,2.8.5,4.22.61.82,1.16,1.72,2.27,2.68,3.32-.2.19-.4.38-.6.55h0Zm1.52-1.51c-.63-.68-1.27-1.44-1.88-2.26.6.02,1.21.04,1.83.04s1.27-.01,1.89-.04c-.57.79-1.19,1.54-1.84,2.26Zm8.12,1.86c-.06.76-.43,1.47-1.03,1.95-.99.57-3.09-.17-5.37-2.13-.26-.22-.52-.47-.79-.71.95-1.05,1.83-2.16,2.62-3.33,1.42-.12,2.84-.34,4.24-.65.06.25.12.51.17.76.3,1.34.35,2.74.16,4.12h0Zm1.13-6.68c-.17.06-.35.11-.53.16-.44-1.35-.97-2.68-1.58-3.96.6-1.27,1.1-2.57,1.52-3.91.32.09.63.19.93.29,2.9.99,4.93,2.47,4.93,3.6,0,1.22-2.17,2.79-5.27,3.82Zm-9.3-.93c1.57,0,2.85-1.27,2.85-2.85s-1.27-2.85-2.85-2.85-2.85,1.27-2.85,2.85,1.27,2.85,2.85,2.85h0Z"/></g></svg>
