<?xml version="1.0" encoding="UTF-8"?><svg id="Layer_2" xmlns="http://www.w3.org/2000/svg" viewBox="0 0 23.15 23.26"><defs><style>.cls-1{fill:#fff;}</style></defs><g id="Layer_1-2"><g><path class="cls-1" d="m17.38,17.92l2.6,2.13,1.16.95-.58-7.21c-.51.78-1.44,2.05-3.17,4.14Z"/><path class="cls-1" d="m12.16,11.61c-1.01.96-2.13,1.8-3.32,2.51l7.12,2.21-1.54-7.3c-.68.93-1.44,1.79-2.27,2.57Z"/><path class="cls-1" d="m1.99,16.08c-.23-.03-.45-.06-.67-.11l3.07,4.75,1.27-5.2c-.94.39-2.21.72-3.66.56Z"/><path class="cls-1" d="m12.6,21.14c1.67.11,5.23.21,7.97.26l-3.68-3.02c-.74.5-2.94,1.98-4.28,2.76Z"/><path class="cls-1" d="m23.05,23.26c.06-.06.1-.15.1-.24,0,.09-.03.18-.1.24Z"/><path class="cls-1" d="m10.19,10.33c3.68-3.39,5.52-7.64,4-9.28-1.51-1.65-5.9-.18-9.59,3.21C.93,7.64-.91,11.89.61,13.54c1.51,1.65,5.9.18,9.59-3.21Z"/><path class="cls-1" d="m16.02,6.95h4.78l-4.32-5c.22,1.37.38,3.52-.46,5Z"/><path class="cls-1" d="m22.46,2.23c0-1.23-1-2.23-2.22-2.23l-5.84.32c.1.08.2.17.29.26,1.82,1.98.04,6.47-4.04,10.23-2.83,2.6-5.92,4.07-8.15,4.07-.99,0-1.82-.29-2.38-.9-.02-.02-.03-.04-.05-.06l-.06,6.15c0,1.23,1,2.23,2.23,2.23l16.48.39h3.76c-.01-.71-.04-2.35-.04-2.88l.03-17.58ZM4.85,21.63c-.03.13-.14.23-.27.25-.02,0-.04,0-.06,0-.11,0-.22-.06-.28-.15L.28,15.59c-.08-.12-.07-.28.02-.39.09-.11.24-.16.37-.11.45.16.92.27,1.39.32,1.65.18,3.04-.33,3.92-.79.12-.06.26-.05.36.03.1.08.15.21.12.34l-1.62,6.63Zm2.82-7.39c-.01-.13.06-.26.17-.33,1.4-.75,2.69-1.69,3.85-2.79.98-.93,1.86-1.97,2.62-3.1.08-.11.21-.17.34-.14.13.03.24.13.26.26l1.81,8.61c.02.12-.01.24-.1.32-.06.06-.14.09-.22.09-.03,0-.07,0-.1-.02l-8.4-2.61c-.13-.04-.22-.15-.23-.29Zm14.18,7.51s0,.03,0,.05c0,.02,0,.04-.01.05,0,0,0,.01,0,.02,0,0,0,.01-.01.02,0,.02-.02.03-.03.05,0,.01-.02.02-.03.04-.01.01-.02.02-.04.04-.01.01-.02.02-.04.03,0,0-.01,0-.02.01-.01,0-.02,0-.04.01,0,0-.02,0-.03.01-.03,0-.06.01-.09.01h0s-2.52-.04-4.98-.11c-5.26-.15-5.28-.25-5.33-.6-.02-.14.04-.32.28-.4.68-.23,3.95-2.4,5.2-3.26,1.79-2.15,3.67-4.62,3.77-5.11h0c-.01-.18.11-.34.28-.37.17-.03.34.08.38.24,0,.02.01.06.01.1l.74,9.14s0,.01,0,.02Zm-.02-14.32c-.05.12-.17.2-.3.2h-6.16c-.13,0-.25-.08-.3-.2-.05-.12-.03-.26.05-.36,1.63-1.84.46-6.18.44-6.22-.04-.15.03-.31.16-.38.14-.07.31-.04.41.08l5.64,6.53c.09.1.11.24.05.36Z"/></g></g></svg>