<?xml version="1.0" encoding="UTF-8"?><svg id="Layer_2" xmlns="http://www.w3.org/2000/svg" viewBox="0 0 35.28 26.46"><defs><style>.cls-1{fill:#fff;}.cls-2{fill:#e8c0d5;}</style></defs><g id="Layer_1-2"><g><path class="cls-1" d="m10.8,17.25c-.49.24-.97.53-1.44.81-.14.08-.28.17-.42.24-.07.04-.08.07-.04.14.37.81.46,1.66.4,2.54-.06.86-.26,1.68-.68,2.43-.92,1.64-2.3,2.66-4.17,2.99-.13.02-.26.03-.4.04-.22,0-.44,0-.67,0-.17,0-.34-.04-.51-.06-.59-.06-1.03-.35-1.33-.86-.39-.66-.48-1.37-.35-2.11.15-.88.58-1.61,1.21-2.24.95-.95,2.07-1.67,3.23-2.33.38-.22.77-.42,1.17-.62.12-.06.1-.1.01-.17-.07-.05-.14-.11-.2-.16-.77-.6-1.59-1.12-2.38-1.69-1.01-.72-2-1.47-2.82-2.41-.49-.55-.9-1.15-1.16-1.84-.11-.27-.17-.56-.24-.84v-.61c.06-.26.09-.53.17-.79.27-.9.73-1.71,1.3-2.46.77-1.01,1.68-1.88,2.69-2.65,1.59-1.22,3.33-2.18,5.16-2.98.93-.4,1.86-.78,2.84-1.06.83-.24,1.67-.4,2.52-.49.49-.05.98-.08,1.47-.07,1.28.03,2.53.21,3.7.77.72.34,1.35.8,1.79,1.48.32.49.49,1.03.55,1.61.14,1.41-.3,2.67-1.05,3.83-1.23,1.91-2.96,3.18-5.13,3.85-.96.3-1.93.51-2.93.58-.9.07-1.8.06-2.68-.17-.81-.22-1.5-.64-2.01-1.32-.13-.18-.22-.38-.26-.6-.02-.1-.02-.21.09-.26.12-.06.2.01.26.09.22.24.46.45.74.61.48.26,1,.42,1.54.48,1.41.15,2.75-.15,4.06-.61,1.51-.53,2.84-1.35,3.94-2.52.66-.71,1.19-1.5,1.44-2.45.13-.52.15-1.03-.01-1.55-.14-.43-.43-.74-.81-.98-.54-.34-1.15-.51-1.77-.6-1.51-.22-2.98-.03-4.44.34-1.55.4-3,1.02-4.4,1.78-1.04.56-2.06,1.17-3,1.89-.84.64-1.61,1.34-2.22,2.2-.43.6-.74,1.25-.86,1.99-.16.96.05,1.82.61,2.61.51.72,1.17,1.29,1.85,1.84.78.63,1.6,1.21,2.35,1.87.21.19.42.39.61.6.05.06.09.07.16.03,1.12-.61,2.24-1.23,3.36-1.84.06-.03.09-.08.13-.12.59-.78,1.31-1.41,2.21-1.83.34-.16.7-.25,1.08-.18.51.09.81.44.89,1,.05.37.04.74-.02,1.11,0,.03-.02.06,0,.09.04,0,.07-.03.1-.05.29-.2.71-.16.96.09.12.12.15.27.11.43-.16.63-.33,1.27-.5,1.9-.15.57-.29,1.14-.39,1.72-.05.28-.07.56-.02.84,0,.03,0,.07.03.08.04.01.06-.03.08-.06.16-.22.27-.46.39-.7.75-1.51,1.41-3.06,2.1-4.6.26-.57.5-1.15.75-1.73.14-.33.21-.68.3-1.03.04-.14.11-.24.25-.28.52-.17,1.06-.22,1.6-.11.08.02.15.05.21.09.14.1.17.19.12.35-.09.3-.19.59-.28.89-.15.52-.15,1.05-.09,1.58.06.54.28,1.01.54,1.5.16-.26.31-.51.45-.76.54-.92,1.06-1.85,1.5-2.82.17-.36.23-.75.34-1.13.04-.13.08-.25.12-.38.04-.14.13-.22.26-.26.52-.16,1.04-.22,1.57-.11.08.02.16.05.23.1.14.1.17.18.12.35-.1.34-.22.67-.31,1.01-.13.5-.11,1.01-.05,1.52.08.67.43,1.23.72,1.82.04.07.08.05.13.03.6-.29,1.23-.49,1.88-.59,1.42-.22,2.8-.13,4.08.57.92.51,1.61,1.24,1.91,2.27.23.77.2,1.52-.28,2.2-.28.4-.66.68-1.11.88-.09.04-.18.05-.27.06-.08.01-.15,0-.18-.09-.04-.09,0-.14.07-.19.17-.12.34-.23.5-.36.65-.56.84-1.33.5-2.13-.28-.67-.76-1.15-1.39-1.49-.59-.33-1.23-.5-1.9-.58-.55-.07-1.1-.1-1.65-.06-.61.05-1.21.17-1.78.39-.09.04-.1.08-.07.17.13.36.23.73.25,1.11.04.65-.22,1.18-.65,1.64-.54.59-1.2.99-1.95,1.24-.17.06-.33.11-.5.15-.57.11-1.02-.26-1.03-.83-.01-.66.23-1.24.58-1.78.37-.58.83-1.09,1.36-1.53.1-.08.11-.14.05-.25-.46-.82-.72-1.71-.89-2.63,0,0,0-.01-.02-.03-.15.29-.3.58-.46.87-.48.89-.99,1.76-1.57,2.59-.06.08-.07.15-.03.25.21.49.36,1,.36,1.54,0,.76-.28,1.42-.87,1.9-.87.71-1.87,1.08-3,1.05-.12,0-.23-.02-.34-.06-.31-.12-.43-.38-.35-.7.08-.29.28-.5.45-.71.52-.64,1.06-1.28,1.59-1.92.17-.21.32-.43.48-.64.05-.07.04-.12.01-.19-.24-.51-.52-1-.69-1.55-.14-.45-.25-.9-.34-1.37-.05.03-.05.07-.07.11-.54,1.34-1.11,2.66-1.76,3.94-.41.81-.84,1.61-1.29,2.4-.21.38-.49.72-.84.98-.53.4-1.1.23-1.35-.38-.13-.32-.17-.65-.18-.98-.02-.4.02-.8.06-1.2-.06.14-.12.27-.17.41-.3.71-.61,1.41-1.01,2.08-.08.13-.17.26-.28.37-.37.39-.9.51-1.4.31-.26-.1-.44-.3-.59-.52-.39-.59-.61-1.25-.72-1.95-.18-1.12.02-2.21.33-3.28.01-.04.02-.09.04-.13.01-.01.02-.02,0-.03,0,0-.01,0-.02.01Zm-2.86,2.91c0-.4-.06-.79-.15-1.17-.02-.08-.04-.12-.13-.06-1.08.64-2.13,1.32-3.06,2.16-.56.51-.98,1.1-1.19,1.84-.09.33-.14.66-.05,1,.08.29.27.46.56.52.23.05.46.03.68-.02.54-.11,1.02-.34,1.45-.67,1.19-.91,1.85-2.1,1.89-3.61Zm4.24-.55c0,.12,0,.25,0,.37.02.31.06.62.19.91.12.26.29.28.47.06.15-.17.26-.37.35-.57.48-1,.86-2.05,1.23-3.09.25-.71.5-1.42.6-2.17.03-.26-.1-.39-.35-.33-.17.04-.32.12-.46.21-.45.29-.75.72-1.02,1.17-.64,1.06-1.03,2.19-1.02,3.43Zm14.19-1.49c0-.06,0-.12,0-.18-.02-.1-.04-.21-.06-.31-.02-.11-.05-.12-.13-.04-.58.53-.98,1.18-1.22,1.93-.04.12-.08.24-.06.36,0,.09.04.12.14.08.84-.32,1.33-.93,1.35-1.85Zm-4.77.95s-.05.06-.06.08c-.38.49-.77.97-1.19,1.43-.15.16-.29.32-.44.48-.02.03-.06.05-.04.09.02.04.07.03.1.02.08-.02.16-.05.23-.09.32-.19.62-.42.87-.7.32-.36.54-.77.53-1.31Z"/><path class="cls-2" d="m3.39,26.46s0-.02,0-.02c.22,0,.44,0,.67,0,0,0,0,.02,0,.02h-.66Z"/><path class="cls-1" d="m10.8,17.25s.02-.02.02-.01c.02.01,0,.02,0,.03,0,0-.01-.01-.02-.02Z"/></g></g></svg>