<?xml version="1.0" encoding="UTF-8"?><svg id="Layer_2" xmlns="http://www.w3.org/2000/svg" viewBox="0 0 29.37 29.37"><defs><style>.cls-1{fill:#FCF6E7;}</style></defs><g id="Layer_1-2"><path class="cls-1" d="m14.23,0h.91c.52.24.93.61,1.33,1.01,3.91,3.93,7.83,7.85,11.76,11.76.44.44.86.89,1.14,1.46v1.04c-.3.45-.63.86-1.01,1.25-3.95,3.94-7.9,7.88-11.84,11.83-.41.41-.84.78-1.38,1.02h-1.04c-.5-.34-.93-.76-1.36-1.19-3.91-3.91-7.81-7.81-11.73-11.71-.4-.4-.77-.82-1.01-1.33v-.91c.14-.31.26-.63.51-.87,2.85-2.86,5.71-5.71,8.56-8.57.22-.22.35-.22.57,0,.92.95,1.87,1.88,2.8,2.82.12.12.26.22.19.44-.38,1.26.22,2.12,1.2,2.8,0,.02-.02.03-.01.04.01.03.03.05.04.08.06,2.61.07,5.22,0,7.84-.04.04-.09.08-.13.12-.17.14-.35.26-.5.41-.83.78-.93,2.04-.25,2.95.68.92,1.9,1.16,2.9.61,1.2-.66,1.77-2.64.06-3.89-.04-.07-.08-.14-.13-.2-.05-2.52-.06-5.05,0-7.57.06,0,.13-.01.19-.02.79.77,1.57,1.56,2.38,2.32.29.27.41.51.32.94-.2,1,.31,1.93,1.2,2.37.86.43,1.84.27,2.53-.39.71-.69.9-1.69.47-2.57-.44-.92-1.31-1.39-2.35-1.24-.31.05-.52-.02-.75-.25-.86-.89-1.74-1.76-2.63-2.63-.18-.18-.25-.34-.21-.62.2-1.67-.87-2.75-2.55-2.61-.29.02-.49-.03-.69-.24-.91-.93-1.83-1.85-2.77-2.76-.24-.24-.25-.38,0-.62.62-.58,1.21-1.19,1.8-1.79.44-.45.87-.92,1.49-1.12Z"/></g></svg>
