<?xml version="1.0" encoding="UTF-8"?><svg id="Layer_2" xmlns="http://www.w3.org/2000/svg" viewBox="0 0 25.78 28.65"><defs><style>.cls-1{fill:#FCF6E7;}</style></defs><g id="Layer_1-2"><path class="cls-1" d="m23.21,0c1.41,0,2.56,1.13,2.58,2.54v.04s0,23.49,0,23.49c0,1.41-1.13,2.56-2.54,2.58h-.04s-20.63,0-20.63,0C1.17,28.65.02,27.52,0,26.11v-.04s0-23.49,0-23.49C0,1.17,1.13.02,2.54,0h.04s20.63,0,20.63,0Zm0,1.43H2.58c-.62,0-1.13.5-1.15,1.12v.03s0,23.49,0,23.49c0,.62.5,1.13,1.12,1.15h.03s20.63,0,20.63,0c.62,0,1.13-.5,1.15-1.12v-.03s0-23.49,0-23.49c0-.63-.51-1.15-1.15-1.15ZM6.45,18.62l3.22,2.86-3.22,2.86v-5.73Zm2.86-14.32v8.13c1.43-.47,3.43-.97,5.37-.97,1.77,0,2.83.7,3.41,1.28,1.22,1.23,1.25,2.8,1.25,3.01h0s0,8.6,0,8.6h-2.86v-8.56c-.01-.67-.34-1.47-1.79-1.47-2.88,0-6.11,1.44-6.21,1.48h0s-2.02.92-2.02.92V4.3h2.86Zm10.03,0c-.19,1.63-.85,3.19-2.15,4.66h-2.86c1.13-1.48,1.83-3.03,2.15-4.66h2.86Z"/></g></svg>
