<?xml version="1.0" encoding="UTF-8"?><svg id="Layer_2" xmlns="http://www.w3.org/2000/svg" viewBox="0 0 23.26 23.26"><defs><style>.cls-1{fill:#FCF6E7;}</style></defs><g id="Layer_1-2"><path class="cls-1" d="m20.77,0H2.49C1.12,0,0,1.12,0,2.49v18.27c0,1.38,1.12,2.49,2.49,2.49h18.27c1.38,0,2.49-1.12,2.49-2.49V2.49c0-1.38-1.12-2.49-2.49-2.49Zm-8.11,18.14c0,2.26-1.33,3.3-3.27,3.3-1.75,0-2.76-.9-3.28-2l1.78-1.07c.34.61.65,1.12,1.41,1.12s1.17-.28,1.17-1.38v-7.43h2.19v7.46h0Zm5.17,3.3c-2.03,0-3.34-.97-3.98-2.23l1.78-1.03c.47.76,1.08,1.33,2.15,1.33.9,0,1.48-.45,1.48-1.08,0-.75-.59-1.01-1.59-1.45l-.55-.23c-1.58-.67-2.62-1.52-2.62-3.3,0-1.64,1.25-2.89,3.2-2.89,1.39,0,2.39.48,3.1,1.75l-1.7,1.09c-.37-.67-.78-.93-1.41-.93s-1.04.4-1.04.93c0,.65.4.92,1.34,1.33l.55.23c1.86.79,2.9,1.61,2.9,3.44,0,1.96-1.55,3.04-3.62,3.04h0Z"/></g></svg>
